# xmcd CD database file
#
# Track frame offsets:
#	150
#	13533
#	31595
#	45424
#	59059
#	74645
#	88174
#	104095
#	121922
#	141318
#	156354
#
# Disc length: 2280 seconds
#
# Revision: 0
# Processed by: cddbd v1.5.2PL0 Copyright (c) Steve Scherf et al.
# Submitted via: CDex 1.70beta2
#
DISCID=9c08e60b
DTITLE=Orville Davis - BarnBurner
DYEAR=2004
DGENRE=Country
TTITLE0=Knockin' At My Door
TTITLE1=Line Dancin' Queen
TTITLE2=Before Your Loved Me
TTITLE3=Don't Say You Love Me
TTITLE4=Rich In Love
TTITLE5=Callin' Janie
TTITLE6=Lonesome Whistle
TTITLE7=Back To Her Broken Heart
TTITLE8=Como Se Dice
TTITLE9=Love Again
TTITLE10=BarnBurner
EXTD=YEAR: 2004
EXTT0=
EXTT1=
EXTT2=
EXTT3=
EXTT4=
EXTT5=
EXTT6=
EXTT7=
EXTT8=
EXTT9=
EXTT10=
PLAYORDER=
